mtllib d-8.mtl
g Octahedron

# Vertex Positions:
v 10 10 0
v 0 10 -10
v 0 20 0
v -10 10 0
v 0 10 10
v 0 0 0

# Vertex Texture Coordinates:
vt 0.28614 0.49975 
vt 0.14357 0.25025 
vt 0.42871 0.25025 
vt 0.57129 0.00075 
vt 0.71386 0.25025 
vt 0.57129 0.49975 
vt 0.001 0.49975 
vt 0.85643 0.49975 
vt 0.999 0.25025 
vt 0.42871 0.74925 

# Vertex Surface Normals:
vn 0.57735 0.57735 -0.57735
vn 0.57735 0.57735 -0.57735
vn 0.57735 0.57735 -0.57735
vn -0.57735 0.57735 -0.57735
vn -0.57735 0.57735 -0.57735
vn -0.57735 0.57735 -0.57735
vn -0.57735 0.57735 0.57735
vn -0.57735 0.57735 0.57735
vn -0.57735 0.57735 0.57735
vn 0.57735 0.57735 0.57735
vn 0.57735 0.57735 0.57735
vn 0.57735 0.57735 0.57735
vn 0.57735 -0.57735 -0.57735
vn 0.57735 -0.57735 -0.57735
vn 0.57735 -0.57735 -0.57735
vn -0.57735 -0.57735 -0.57735
vn -0.57735 -0.57735 -0.57735
vn -0.57735 -0.57735 -0.57735
vn -0.57735 -0.57735 0.57735
vn -0.57735 -0.57735 0.57735
vn -0.57735 -0.57735 0.57735
vn 0.57735 -0.57735 0.57735
vn 0.57735 -0.57735 0.57735
vn 0.57735 -0.57735 0.57735

# Faces:
usemtl Beer
f 1/1/1 2/2/2 3/3/3
f 2/4/4 4/5/5 3/3/6
f 4/5/7 5/6/8 3/3/9
f 3/3/10 5/6/11 1/1/12
f 6/7/13 2/2/14 1/1/15
f 6/8/16 4/5/17 2/9/18
f 6/8/19 5/6/20 4/5/21
f 6/10/22 1/1/23 5/6/24
