mtllib d-twenty.mtl
g Icosahedron

# Vertex Positions:
v 8.50651 8.50651 5.25731
v 5.25731 0 0
v 8.50651 8.50651 -5.25731
v 5.25731 17.01302 0
v 0 3.2492 -8.50651
v 0 13.76382 -8.50651
v 0 3.2492 8.50651
v 0 13.76382 8.50651
v -8.50651 8.50651 -5.25731
v -5.25731 0 0
v -8.50651 8.50651 5.25731
v -5.25731 17.01302 0

# Vertex Texture Coordinates:
vt 0.90909 0.58333 
vt 0.81818 0.75 
vt 0.72727 0.58333 
vt 0.81818 0.41667 
vt 0.54545 0.58333 
vt 0.63636 0.41667 
vt 0.63636 0.75 
vt 0.18182 0.58333 
vt 0 0.58333 
vt 0.09091 0.41667 
vt 0.09091 0.75 
vt 1 0.41667 
vt 0.45454 0.41667 
vt 0.36364 0.58333 
vt 0.27273 0.41667 
vt 0.36364 0.25 
vt 0.18182 0.25 
vt 0.54545 0.25 
vt 0.27273 0.75 
vt 0.90909 0.25 
vt 0.72727 0.25 
vt 0.45454 0.75 

# Vertex Surface Normals:
vn 0.93417 -0.35682 0
vn 0.93417 -0.35682 0
vn 0.93417 -0.35682 0
vn 0.93417 0.35682 0
vn 0.93417 0.35682 0
vn 0.93417 0.35682 0
vn 0.35682 0 -0.93417
vn 0.35682 0 -0.93417
vn 0.35682 0 -0.93417
vn 0.57735 0.57735 -0.57735
vn 0.57735 0.57735 -0.57735
vn 0.57735 0.57735 -0.57735
vn 0.57735 -0.57735 -0.57735
vn 0.57735 -0.57735 -0.57735
vn 0.57735 -0.57735 -0.57735
vn 0.35682 0 0.93417
vn 0.35682 0 0.93417
vn 0.35682 0 0.93417
vn 0.57735 -0.57735 0.57735
vn 0.57735 -0.57735 0.57735
vn 0.57735 -0.57735 0.57735
vn 0.57735 0.57735 0.57735
vn 0.57735 0.57735 0.57735
vn 0.57735 0.57735 0.57735
vn -0.93417 -0.35682 0
vn -0.93417 -0.35682 0
vn -0.93417 -0.35682 0
vn -0.93417 0.35682 0
vn -0.93417 0.35682 0
vn -0.93417 0.35682 0
vn -0.35682 0 0.93417
vn -0.35682 0 0.93417
vn -0.35682 0 0.93417
vn -0.57735 -0.57735 0.57735
vn -0.57735 -0.57735 0.57735
vn -0.57735 -0.57735 0.57735
vn -0.57735 0.57735 0.57735
vn -0.57735 0.57735 0.57735
vn -0.57735 0.57735 0.57735
vn -0.35682 0 -0.93417
vn -0.35682 0 -0.93417
vn -0.35682 0 -0.93417
vn -0.57735 0.57735 -0.57735
vn -0.57735 0.57735 -0.57735
vn -0.57735 0.57735 -0.57735
vn -0.57735 -0.57735 -0.57735
vn -0.57735 -0.57735 -0.57735
vn -0.57735 -0.57735 -0.57735
vn 0 -0.93417 0.35682
vn 0 -0.93417 0.35682
vn 0 -0.93417 0.35682
vn 0 0.93417 0.35682
vn 0 0.93417 0.35682
vn 0 0.93417 0.35682
vn 0 0.93417 -0.35682
vn 0 0.93417 -0.35682
vn 0 0.93417 -0.35682
vn 0 -0.93417 -0.35682
vn 0 -0.93417 -0.35682
vn 0 -0.93417 -0.35682

# Faces:
usemtl Beer
f 1/1/1 2/2/2 3/3/3
f 3/3/4 4/4/5 1/1/6
f 3/3/7 5/5/8 6/6/9
f 3/3/10 6/6/11 4/4/12
f 3/3/13 2/7/14 5/5/15
f 7/8/16 1/9/17 8/10/18
f 2/11/19 1/9/20 7/8/21
f 1/1/22 4/4/23 8/12/24
f 9/13/25 10/14/26 11/15/27
f 11/15/28 12/16/29 9/13/30
f 7/8/31 8/10/32 11/15/33
f 11/15/34 10/14/35 7/8/36
f 8/10/37 12/17/38 11/15/39
f 6/6/40 5/5/41 9/13/42
f 9/13/43 12/18/44 6/6/45
f 9/13/46 5/5/47 10/14/48
f 7/8/49 10/14/50 2/19/51
f 8/12/52 4/4/53 12/20/54
f 6/6/55 12/21/56 4/4/57
f 5/5/58 2/22/59 10/14/60
